M48
;DRILL file {KiCad 4.0.5} date Sat Apr  1 11:25:21 2017
;FORMAT={-:-/ absolute / metric / decimal}
FMAT,2
METRIC,TZ
T1C0.400
T2C1.270
%
G90
G05
M71
T1
X160.401Y-112.395
X163.195Y-114.554
X165.735Y-103.632
X166.878Y-96.266
X166.878Y-111.252
X168.148Y-94.752
X168.148Y-107.823
X169.418Y-91.313
X169.418Y-99.949
X169.418Y-102.235
X169.418Y-108.712
X170.688Y-93.218
X170.688Y-101.6
X171.958Y-91.948
X171.958Y-98.298
X171.958Y-105.283
X173.228Y-96.266
X173.228Y-106.68
X174.625Y-103.632
T2
X164.973Y-111.252
X170.053Y-114.554
X175.133Y-111.252
T0
M30
