G04 #@! TF.FileFunction,Soldermask,Top*
%FSLAX46Y46*%
G04 Gerber Fmt 4.6, Leading zero omitted, Abs format (unit mm)*
G04 Created by KiCad (PCBNEW 4.0.5) date Sat Apr  1 12:10:48 2017*
%MOMM*%
%LPD*%
G01*
G04 APERTURE LIST*
%ADD10C,0.100000*%
%ADD11R,1.050000X2.100000*%
%ADD12R,1.300000X1.400000*%
%ADD13C,2.686000*%
G04 APERTURE END LIST*
D10*
G36*
X169535237Y-91117435D02*
X169785357Y-89538239D01*
X171364553Y-89788359D01*
X171114433Y-91367555D01*
X169535237Y-91117435D01*
X169535237Y-91117435D01*
G37*
G36*
X171607447Y-91445641D02*
X171857567Y-89866445D01*
X173436763Y-90116565D01*
X173186643Y-91695761D01*
X171607447Y-91445641D01*
X171607447Y-91445641D01*
G37*
G36*
X172303072Y-91408523D02*
X173028948Y-89983911D01*
X174453560Y-90709787D01*
X173727684Y-92134399D01*
X172303072Y-91408523D01*
X172303072Y-91408523D01*
G37*
G36*
X174172440Y-92361013D02*
X174898316Y-90936401D01*
X176322928Y-91662277D01*
X175597052Y-93086889D01*
X174172440Y-92361013D01*
X174172440Y-92361013D01*
G37*
G36*
X174845652Y-92540731D02*
X175976231Y-91410152D01*
X177106810Y-92540731D01*
X175976231Y-93671310D01*
X174845652Y-92540731D01*
X174845652Y-92540731D01*
G37*
G36*
X176329190Y-94024269D02*
X177459769Y-92893690D01*
X178590348Y-94024269D01*
X177459769Y-95154848D01*
X176329190Y-94024269D01*
X176329190Y-94024269D01*
G37*
G36*
X176913511Y-94403048D02*
X178338123Y-93677172D01*
X179063999Y-95101784D01*
X177639387Y-95827660D01*
X176913511Y-94403048D01*
X176913511Y-94403048D01*
G37*
G36*
X177866001Y-96272416D02*
X179290613Y-95546540D01*
X180016489Y-96971152D01*
X178591877Y-97697028D01*
X177866001Y-96272416D01*
X177866001Y-96272416D01*
G37*
G36*
X178304239Y-96813257D02*
X179883435Y-96563137D01*
X180133555Y-98142333D01*
X178554359Y-98392453D01*
X178304239Y-96813257D01*
X178304239Y-96813257D01*
G37*
G36*
X178632445Y-98885467D02*
X180211641Y-98635347D01*
X180461761Y-100214543D01*
X178882565Y-100464663D01*
X178632445Y-98885467D01*
X178632445Y-98885467D01*
G37*
G36*
X178882565Y-99535237D02*
X180461761Y-99785357D01*
X180211641Y-101364553D01*
X178632445Y-101114433D01*
X178882565Y-99535237D01*
X178882565Y-99535237D01*
G37*
G36*
X178554359Y-101607447D02*
X180133555Y-101857567D01*
X179883435Y-103436763D01*
X178304239Y-103186643D01*
X178554359Y-101607447D01*
X178554359Y-101607447D01*
G37*
G36*
X178591877Y-102303072D02*
X180016489Y-103028948D01*
X179290613Y-104453560D01*
X177866001Y-103727684D01*
X178591877Y-102303072D01*
X178591877Y-102303072D01*
G37*
G36*
X177639387Y-104172440D02*
X179063999Y-104898316D01*
X178338123Y-106322928D01*
X176913511Y-105597052D01*
X177639387Y-104172440D01*
X177639387Y-104172440D01*
G37*
G36*
X177459769Y-104845652D02*
X178590348Y-105976231D01*
X177459769Y-107106810D01*
X176329190Y-105976231D01*
X177459769Y-104845652D01*
X177459769Y-104845652D01*
G37*
G36*
X175976231Y-106329190D02*
X177106810Y-107459769D01*
X175976231Y-108590348D01*
X174845652Y-107459769D01*
X175976231Y-106329190D01*
X175976231Y-106329190D01*
G37*
G36*
X175597052Y-106913511D02*
X176322928Y-108338123D01*
X174898316Y-109063999D01*
X174172440Y-107639387D01*
X175597052Y-106913511D01*
X175597052Y-106913511D01*
G37*
G36*
X173727684Y-107866001D02*
X174453560Y-109290613D01*
X173028948Y-110016489D01*
X172303072Y-108591877D01*
X173727684Y-107866001D01*
X173727684Y-107866001D01*
G37*
G36*
X173186643Y-108304239D02*
X173436763Y-109883435D01*
X171857567Y-110133555D01*
X171607447Y-108554359D01*
X173186643Y-108304239D01*
X173186643Y-108304239D01*
G37*
G36*
X171114433Y-108632445D02*
X171364553Y-110211641D01*
X169785357Y-110461761D01*
X169535237Y-108882565D01*
X171114433Y-108632445D01*
X171114433Y-108632445D01*
G37*
G36*
X170464763Y-108882565D02*
X170214643Y-110461761D01*
X168635447Y-110211641D01*
X168885567Y-108632445D01*
X170464763Y-108882565D01*
X170464763Y-108882565D01*
G37*
G36*
X168392553Y-108554359D02*
X168142433Y-110133555D01*
X166563237Y-109883435D01*
X166813357Y-108304239D01*
X168392553Y-108554359D01*
X168392553Y-108554359D01*
G37*
G36*
X167696928Y-108591877D02*
X166971052Y-110016489D01*
X165546440Y-109290613D01*
X166272316Y-107866001D01*
X167696928Y-108591877D01*
X167696928Y-108591877D01*
G37*
G36*
X165827560Y-107639387D02*
X165101684Y-109063999D01*
X163677072Y-108338123D01*
X164402948Y-106913511D01*
X165827560Y-107639387D01*
X165827560Y-107639387D01*
G37*
G36*
X165154348Y-107459769D02*
X164023769Y-108590348D01*
X162893190Y-107459769D01*
X164023769Y-106329190D01*
X165154348Y-107459769D01*
X165154348Y-107459769D01*
G37*
G36*
X163670810Y-105976231D02*
X162540231Y-107106810D01*
X161409652Y-105976231D01*
X162540231Y-104845652D01*
X163670810Y-105976231D01*
X163670810Y-105976231D01*
G37*
G36*
X163086489Y-105597052D02*
X161661877Y-106322928D01*
X160936001Y-104898316D01*
X162360613Y-104172440D01*
X163086489Y-105597052D01*
X163086489Y-105597052D01*
G37*
G36*
X162133999Y-103727684D02*
X160709387Y-104453560D01*
X159983511Y-103028948D01*
X161408123Y-102303072D01*
X162133999Y-103727684D01*
X162133999Y-103727684D01*
G37*
G36*
X161695761Y-103186643D02*
X160116565Y-103436763D01*
X159866445Y-101857567D01*
X161445641Y-101607447D01*
X161695761Y-103186643D01*
X161695761Y-103186643D01*
G37*
G36*
X161367555Y-101114433D02*
X159788359Y-101364553D01*
X159538239Y-99785357D01*
X161117435Y-99535237D01*
X161367555Y-101114433D01*
X161367555Y-101114433D01*
G37*
G36*
X161117435Y-100464663D02*
X159538239Y-100214543D01*
X159788359Y-98635347D01*
X161367555Y-98885467D01*
X161117435Y-100464663D01*
X161117435Y-100464663D01*
G37*
G36*
X161445641Y-98392453D02*
X159866445Y-98142333D01*
X160116565Y-96563137D01*
X161695761Y-96813257D01*
X161445641Y-98392453D01*
X161445641Y-98392453D01*
G37*
G36*
X161408123Y-97697028D02*
X159983511Y-96971152D01*
X160709387Y-95546540D01*
X162133999Y-96272416D01*
X161408123Y-97697028D01*
X161408123Y-97697028D01*
G37*
G36*
X162360613Y-95827660D02*
X160936001Y-95101784D01*
X161661877Y-93677172D01*
X163086489Y-94403048D01*
X162360613Y-95827660D01*
X162360613Y-95827660D01*
G37*
G36*
X162540231Y-95154848D02*
X161409652Y-94024269D01*
X162540231Y-92893690D01*
X163670810Y-94024269D01*
X162540231Y-95154848D01*
X162540231Y-95154848D01*
G37*
G36*
X164023769Y-93671310D02*
X162893190Y-92540731D01*
X164023769Y-91410152D01*
X165154348Y-92540731D01*
X164023769Y-93671310D01*
X164023769Y-93671310D01*
G37*
G36*
X164402948Y-93086889D02*
X163677072Y-91662277D01*
X165101684Y-90936401D01*
X165827560Y-92361013D01*
X164402948Y-93086889D01*
X164402948Y-93086889D01*
G37*
G36*
X166272316Y-92134399D02*
X165546440Y-90709787D01*
X166971052Y-89983911D01*
X167696928Y-91408523D01*
X166272316Y-92134399D01*
X166272316Y-92134399D01*
G37*
G36*
X166813357Y-91695761D02*
X166563237Y-90116565D01*
X168142433Y-89866445D01*
X168392553Y-91445641D01*
X166813357Y-91695761D01*
X166813357Y-91695761D01*
G37*
G36*
X168885567Y-91367555D02*
X168635447Y-89788359D01*
X170214643Y-89538239D01*
X170464763Y-91117435D01*
X168885567Y-91367555D01*
X168885567Y-91367555D01*
G37*
D11*
X168148000Y-103599000D03*
X169418000Y-103599000D03*
X170688000Y-103599000D03*
X171958000Y-103599000D03*
X171958000Y-96299000D03*
X170688000Y-96299000D03*
X169418000Y-96299000D03*
X168148000Y-96299000D03*
D12*
X160363000Y-114445000D03*
X161963000Y-114445000D03*
X160363000Y-110345000D03*
X161963000Y-110345000D03*
D13*
X164973000Y-111252000D03*
X175133000Y-111252000D03*
X170053000Y-114554000D03*
M02*
