G04 #@! TF.FileFunction,Legend,Top*
%FSLAX46Y46*%
G04 Gerber Fmt 4.6, Leading zero omitted, Abs format (unit mm)*
G04 Created by KiCad (PCBNEW 4.0.5) date Sat Apr  1 12:10:48 2017*
%MOMM*%
%LPD*%
G01*
G04 APERTURE LIST*
%ADD10C,0.100000*%
%ADD11C,0.300000*%
%ADD12C,0.175000*%
%ADD13C,0.200000*%
%ADD14C,0.150000*%
G04 APERTURE END LIST*
D10*
D11*
X180467000Y-99949000D02*
G75*
G03X180467000Y-99949000I-10414000J0D01*
G01*
X178816000Y-99949000D02*
G75*
G03X178816000Y-99949000I-8763000J0D01*
G01*
D12*
X172959143Y-114869143D02*
X172959143Y-115640571D01*
X172916286Y-115726286D01*
X172830571Y-115769143D01*
X172787714Y-115769143D01*
X172959143Y-114569143D02*
X172916286Y-114612000D01*
X172959143Y-114654857D01*
X173002000Y-114612000D01*
X172959143Y-114569143D01*
X172959143Y-114654857D01*
X173730571Y-115426286D02*
X173644857Y-115469143D01*
X173473428Y-115469143D01*
X173387714Y-115426286D01*
X173344857Y-115340571D01*
X173344857Y-114997714D01*
X173387714Y-114912000D01*
X173473428Y-114869143D01*
X173644857Y-114869143D01*
X173730571Y-114912000D01*
X173773428Y-114997714D01*
X173773428Y-115083429D01*
X173344857Y-115169143D01*
X174159143Y-114869143D02*
X174159143Y-115469143D01*
X174159143Y-114954857D02*
X174202000Y-114912000D01*
X174287714Y-114869143D01*
X174416286Y-114869143D01*
X174502000Y-114912000D01*
X174544857Y-114997714D01*
X174544857Y-115469143D01*
X174930572Y-115426286D02*
X175016286Y-115469143D01*
X175187714Y-115469143D01*
X175273429Y-115426286D01*
X175316286Y-115340571D01*
X175316286Y-115297714D01*
X175273429Y-115212000D01*
X175187714Y-115169143D01*
X175059143Y-115169143D01*
X174973429Y-115126286D01*
X174930572Y-115040571D01*
X174930572Y-114997714D01*
X174973429Y-114912000D01*
X175059143Y-114869143D01*
X175187714Y-114869143D01*
X175273429Y-114912000D01*
X176259143Y-115040571D02*
X176216285Y-114997714D01*
X176130571Y-114954857D01*
X176044857Y-114954857D01*
X175959143Y-114997714D01*
X175916285Y-115040571D01*
X175873428Y-115126286D01*
X175873428Y-115212000D01*
X175916285Y-115297714D01*
X175959143Y-115340571D01*
X176044857Y-115383429D01*
X176130571Y-115383429D01*
X176216285Y-115340571D01*
X176259143Y-115297714D01*
X176259143Y-114954857D02*
X176259143Y-115297714D01*
X176302000Y-115340571D01*
X176344857Y-115340571D01*
X176430571Y-115297714D01*
X176473428Y-115212000D01*
X176473428Y-114997714D01*
X176387714Y-114869143D01*
X176259143Y-114783429D01*
X176087714Y-114740571D01*
X175916285Y-114783429D01*
X175787714Y-114869143D01*
X175702000Y-114997714D01*
X175659143Y-115169143D01*
X175702000Y-115340571D01*
X175787714Y-115469143D01*
X175916285Y-115554857D01*
X176087714Y-115597714D01*
X176259143Y-115554857D01*
X176387714Y-115469143D01*
X177244857Y-114869143D02*
X177244857Y-115469143D01*
X177030571Y-114526286D02*
X176816286Y-115169143D01*
X177373428Y-115169143D01*
X177716286Y-115469143D02*
X177716286Y-114569143D01*
X177802000Y-115126286D02*
X178059143Y-115469143D01*
X178059143Y-114869143D02*
X177716286Y-115212000D01*
X178402000Y-114654857D02*
X178444857Y-114612000D01*
X178530571Y-114569143D01*
X178744857Y-114569143D01*
X178830571Y-114612000D01*
X178873428Y-114654857D01*
X178916285Y-114740571D01*
X178916285Y-114826286D01*
X178873428Y-114954857D01*
X178359142Y-115469143D01*
X178916285Y-115469143D01*
X179302000Y-115383429D02*
X179344857Y-115426286D01*
X179302000Y-115469143D01*
X179259143Y-115426286D01*
X179302000Y-115383429D01*
X179302000Y-115469143D01*
X180116285Y-115469143D02*
X180116285Y-114569143D01*
X180116285Y-115426286D02*
X180030571Y-115469143D01*
X179859142Y-115469143D01*
X179773428Y-115426286D01*
X179730571Y-115383429D01*
X179687714Y-115297714D01*
X179687714Y-115040571D01*
X179730571Y-114954857D01*
X179773428Y-114912000D01*
X179859142Y-114869143D01*
X180030571Y-114869143D01*
X180116285Y-114912000D01*
X180887714Y-115426286D02*
X180802000Y-115469143D01*
X180630571Y-115469143D01*
X180544857Y-115426286D01*
X180502000Y-115340571D01*
X180502000Y-114997714D01*
X180544857Y-114912000D01*
X180630571Y-114869143D01*
X180802000Y-114869143D01*
X180887714Y-114912000D01*
X180930571Y-114997714D01*
X180930571Y-115083429D01*
X180502000Y-115169143D01*
X177073428Y-113259429D02*
X176987714Y-113216571D01*
X176816285Y-113216571D01*
X176730571Y-113259429D01*
X176644857Y-113345143D01*
X176602000Y-113430857D01*
X176602000Y-113602286D01*
X176644857Y-113688000D01*
X176730571Y-113773714D01*
X176816285Y-113816571D01*
X176987714Y-113816571D01*
X177073428Y-113773714D01*
X176902000Y-112916571D02*
X176687714Y-112959429D01*
X176473428Y-113088000D01*
X176344857Y-113302286D01*
X176302000Y-113516571D01*
X176344857Y-113730857D01*
X176473428Y-113945143D01*
X176687714Y-114073714D01*
X176902000Y-114116571D01*
X177116285Y-114073714D01*
X177330571Y-113945143D01*
X177459142Y-113730857D01*
X177502000Y-113516571D01*
X177459142Y-113302286D01*
X177330571Y-113088000D01*
X177116285Y-112959429D01*
X176902000Y-112916571D01*
X177844857Y-113130857D02*
X177887714Y-113088000D01*
X177973428Y-113045143D01*
X178187714Y-113045143D01*
X178273428Y-113088000D01*
X178316285Y-113130857D01*
X178359142Y-113216571D01*
X178359142Y-113302286D01*
X178316285Y-113430857D01*
X177801999Y-113945143D01*
X178359142Y-113945143D01*
X178916285Y-113045143D02*
X179002000Y-113045143D01*
X179087714Y-113088000D01*
X179130571Y-113130857D01*
X179173428Y-113216571D01*
X179216285Y-113388000D01*
X179216285Y-113602286D01*
X179173428Y-113773714D01*
X179130571Y-113859429D01*
X179087714Y-113902286D01*
X179002000Y-113945143D01*
X178916285Y-113945143D01*
X178830571Y-113902286D01*
X178787714Y-113859429D01*
X178744857Y-113773714D01*
X178702000Y-113602286D01*
X178702000Y-113388000D01*
X178744857Y-113216571D01*
X178787714Y-113130857D01*
X178830571Y-113088000D01*
X178916285Y-113045143D01*
X180073428Y-113945143D02*
X179559143Y-113945143D01*
X179816285Y-113945143D02*
X179816285Y-113045143D01*
X179730571Y-113173714D01*
X179644857Y-113259429D01*
X179559143Y-113302286D01*
X180373428Y-113045143D02*
X180973428Y-113045143D01*
X180587714Y-113945143D01*
D13*
X182372000Y-116586000D02*
X157734000Y-116586000D01*
X182372000Y-86995000D02*
X182372000Y-116586000D01*
X182245000Y-86995000D02*
X182372000Y-86995000D01*
X157734000Y-86995000D02*
X182245000Y-86995000D01*
X157734000Y-116586000D02*
X157734000Y-86995000D01*
D14*
X173183627Y-90126529D02*
X170516869Y-89704156D01*
X172948975Y-91608061D02*
X170282217Y-91185688D01*
X171608234Y-90484490D02*
X171569125Y-90731412D01*
X171569125Y-90731412D02*
X171740744Y-90606724D01*
X171776939Y-91017443D02*
X171886443Y-90326061D01*
X171486000Y-90617000D02*
X171140309Y-90562248D01*
X171831691Y-90671752D02*
X171431248Y-90962691D01*
X171431248Y-90962691D02*
X171540752Y-90271309D01*
X171540752Y-90271309D02*
X171831691Y-90671752D01*
X176079103Y-91593530D02*
X173673386Y-90367756D01*
X175398118Y-92930040D02*
X172992400Y-91704265D01*
X174470199Y-91447148D02*
X174356702Y-91669900D01*
X174356702Y-91669900D02*
X174558451Y-91604347D01*
X174465956Y-92006149D02*
X174783749Y-91382444D01*
X174313000Y-91535400D02*
X174001148Y-91376503D01*
X174624852Y-91694297D02*
X174154103Y-91847252D01*
X174154103Y-91847252D02*
X174471897Y-91223548D01*
X174471897Y-91223548D02*
X174624852Y-91694297D01*
X178379701Y-93883541D02*
X176470513Y-91974352D01*
X177319041Y-94944201D02*
X175409852Y-93035013D01*
X176894777Y-93247145D02*
X176718000Y-93423921D01*
X176718000Y-93423921D02*
X176930132Y-93423921D01*
X176718000Y-93777475D02*
X177212975Y-93282500D01*
X176718000Y-93282500D02*
X176470513Y-93035013D01*
X176965487Y-93529987D02*
X176470513Y-93529987D01*
X176470513Y-93529987D02*
X176965487Y-93035013D01*
X176965487Y-93035013D02*
X176965487Y-93529987D01*
X179859640Y-96772218D02*
X178633865Y-94366500D01*
X178523130Y-97453203D02*
X177297356Y-95047486D01*
X178644050Y-95708102D02*
X178421298Y-95821600D01*
X178421298Y-95821600D02*
X178623048Y-95887152D01*
X178312044Y-96157849D02*
X178935749Y-95840056D01*
X178465000Y-95687100D02*
X178306103Y-95375248D01*
X178623897Y-95998952D02*
X178153148Y-95845997D01*
X178153148Y-95845997D02*
X178776852Y-95528203D01*
X178776852Y-95528203D02*
X178623897Y-95998952D01*
X180374061Y-99976875D02*
X179951688Y-97310117D01*
X178892529Y-100211527D02*
X178470156Y-97544769D01*
X179546797Y-98589204D02*
X179299875Y-98628312D01*
X179299875Y-98628312D02*
X179471493Y-98753000D01*
X179092061Y-98914343D02*
X179783443Y-98804839D01*
X179383000Y-98513900D02*
X179328248Y-98168209D01*
X179437752Y-98859591D02*
X179037309Y-98568652D01*
X179037309Y-98568652D02*
X179728691Y-98459148D01*
X179728691Y-98459148D02*
X179437752Y-98859591D01*
X179873471Y-103183627D02*
X180295844Y-100516869D01*
X178391939Y-102948975D02*
X178814312Y-100282217D01*
X179515510Y-101608234D02*
X179268588Y-101569125D01*
X179268588Y-101569125D02*
X179393276Y-101740744D01*
X178982557Y-101776939D02*
X179673939Y-101886443D01*
X179383000Y-101486000D02*
X179437752Y-101140309D01*
X179328248Y-101831691D02*
X179037309Y-101431248D01*
X179037309Y-101431248D02*
X179728691Y-101540752D01*
X179728691Y-101540752D02*
X179328248Y-101831691D01*
X178406870Y-106079103D02*
X179632644Y-103673386D01*
X177070360Y-105398118D02*
X178296135Y-102992400D01*
X178553252Y-104470199D02*
X178330500Y-104356702D01*
X178330500Y-104356702D02*
X178396053Y-104558451D01*
X177994251Y-104465956D02*
X178617956Y-104783749D01*
X178465000Y-104313000D02*
X178623897Y-104001148D01*
X178306103Y-104624852D02*
X178153148Y-104154103D01*
X178153148Y-104154103D02*
X178776852Y-104471897D01*
X178776852Y-104471897D02*
X178306103Y-104624852D01*
X176116959Y-108379701D02*
X178026148Y-106470513D01*
X175056299Y-107319041D02*
X176965487Y-105409852D01*
X176753355Y-106894777D02*
X176576579Y-106718000D01*
X176576579Y-106718000D02*
X176576579Y-106930132D01*
X176223025Y-106718000D02*
X176718000Y-107212975D01*
X176718000Y-106718000D02*
X176965487Y-106470513D01*
X176470513Y-106965487D02*
X176470513Y-106470513D01*
X176470513Y-106470513D02*
X176965487Y-106965487D01*
X176965487Y-106965487D02*
X176470513Y-106965487D01*
X173227882Y-109859640D02*
X175633600Y-108633865D01*
X172546897Y-108523130D02*
X174952614Y-107297356D01*
X174291998Y-108644050D02*
X174178500Y-108421298D01*
X174178500Y-108421298D02*
X174112948Y-108623048D01*
X173842251Y-108312044D02*
X174160044Y-108935749D01*
X174313000Y-108465000D02*
X174624852Y-108306103D01*
X174001148Y-108623897D02*
X174154103Y-108153148D01*
X174154103Y-108153148D02*
X174471897Y-108776852D01*
X174471897Y-108776852D02*
X174001148Y-108623897D01*
X170023025Y-110374061D02*
X172689783Y-109951688D01*
X169788373Y-108892529D02*
X172455131Y-108470156D01*
X171410696Y-109546797D02*
X171371588Y-109299875D01*
X171371588Y-109299875D02*
X171246900Y-109471493D01*
X171085557Y-109092061D02*
X171195061Y-109783443D01*
X171486000Y-109383000D02*
X171831691Y-109328248D01*
X171140309Y-109437752D02*
X171431248Y-109037309D01*
X171431248Y-109037309D02*
X171540752Y-109728691D01*
X171540752Y-109728691D02*
X171140309Y-109437752D01*
X166816373Y-109873471D02*
X169483131Y-110295844D01*
X167051025Y-108391939D02*
X169717783Y-108814312D01*
X168391766Y-109515510D02*
X168430875Y-109268588D01*
X168430875Y-109268588D02*
X168259256Y-109393276D01*
X168223061Y-108982557D02*
X168113557Y-109673939D01*
X168514000Y-109383000D02*
X168859691Y-109437752D01*
X168168309Y-109328248D02*
X168568752Y-109037309D01*
X168568752Y-109037309D02*
X168459248Y-109728691D01*
X168459248Y-109728691D02*
X168168309Y-109328248D01*
X163920897Y-108406870D02*
X166326614Y-109632644D01*
X164601882Y-107070360D02*
X167007600Y-108296135D01*
X165529801Y-108553252D02*
X165643298Y-108330500D01*
X165643298Y-108330500D02*
X165441549Y-108396053D01*
X165534044Y-107994251D02*
X165216251Y-108617956D01*
X165687000Y-108465000D02*
X165998852Y-108623897D01*
X165375148Y-108306103D02*
X165845897Y-108153148D01*
X165845897Y-108153148D02*
X165528103Y-108776852D01*
X165528103Y-108776852D02*
X165375148Y-108306103D01*
X161620299Y-106116959D02*
X163529487Y-108026148D01*
X162680959Y-105056299D02*
X164590148Y-106965487D01*
X163105223Y-106753355D02*
X163282000Y-106576579D01*
X163282000Y-106576579D02*
X163069868Y-106576579D01*
X163282000Y-106223025D02*
X162787025Y-106718000D01*
X163282000Y-106718000D02*
X163529487Y-106965487D01*
X163034513Y-106470513D02*
X163529487Y-106470513D01*
X163529487Y-106470513D02*
X163034513Y-106965487D01*
X163034513Y-106965487D02*
X163034513Y-106470513D01*
X160140360Y-103227882D02*
X161366135Y-105633600D01*
X161476870Y-102546897D02*
X162702644Y-104952614D01*
X161355950Y-104291998D02*
X161578702Y-104178500D01*
X161578702Y-104178500D02*
X161376952Y-104112948D01*
X161687956Y-103842251D02*
X161064251Y-104160044D01*
X161535000Y-104313000D02*
X161693897Y-104624852D01*
X161376103Y-104001148D02*
X161846852Y-104154103D01*
X161846852Y-104154103D02*
X161223148Y-104471897D01*
X161223148Y-104471897D02*
X161376103Y-104001148D01*
X159625939Y-100023025D02*
X160048312Y-102689783D01*
X161107471Y-99788373D02*
X161529844Y-102455131D01*
X160453203Y-101410696D02*
X160700125Y-101371588D01*
X160700125Y-101371588D02*
X160528507Y-101246900D01*
X160907939Y-101085557D02*
X160216557Y-101195061D01*
X160617000Y-101486000D02*
X160671752Y-101831691D01*
X160562248Y-101140309D02*
X160962691Y-101431248D01*
X160962691Y-101431248D02*
X160271309Y-101540752D01*
X160271309Y-101540752D02*
X160562248Y-101140309D01*
X160126529Y-96816273D02*
X159704156Y-99483031D01*
X161608061Y-97050925D02*
X161185688Y-99717683D01*
X160484490Y-98391666D02*
X160731412Y-98430775D01*
X160731412Y-98430775D02*
X160606724Y-98259156D01*
X161017443Y-98222961D02*
X160326061Y-98113457D01*
X160617000Y-98513900D02*
X160562248Y-98859591D01*
X160671752Y-98168209D02*
X160962691Y-98568652D01*
X160962691Y-98568652D02*
X160271309Y-98459148D01*
X160271309Y-98459148D02*
X160671752Y-98168209D01*
X161593130Y-93920997D02*
X160367356Y-96326714D01*
X162929640Y-94601982D02*
X161703865Y-97007700D01*
X161446748Y-95529901D02*
X161669500Y-95643398D01*
X161669500Y-95643398D02*
X161603947Y-95441649D01*
X162005749Y-95534144D02*
X161382044Y-95216351D01*
X161535000Y-95687100D02*
X161376103Y-95998952D01*
X161693897Y-95375248D02*
X161846852Y-95845997D01*
X161846852Y-95845997D02*
X161223148Y-95528203D01*
X161223148Y-95528203D02*
X161693897Y-95375248D01*
X163883041Y-91620799D02*
X161973852Y-93529987D01*
X164943701Y-92681459D02*
X163034513Y-94590648D01*
X163246645Y-93105723D02*
X163423421Y-93282500D01*
X163423421Y-93282500D02*
X163423421Y-93070368D01*
X163776975Y-93282500D02*
X163282000Y-92787525D01*
X163282000Y-93282500D02*
X163034513Y-93529987D01*
X163529487Y-93035013D02*
X163529487Y-93529987D01*
X163529487Y-93529987D02*
X163034513Y-93035013D01*
X163034513Y-93035013D02*
X163529487Y-93035013D01*
X166772118Y-90140760D02*
X164366400Y-91366535D01*
X167453103Y-91477270D02*
X165047386Y-92703044D01*
X165708002Y-91356350D02*
X165821500Y-91579102D01*
X165821500Y-91579102D02*
X165887052Y-91377352D01*
X166157749Y-91688356D02*
X165839956Y-91064651D01*
X165687000Y-91535400D02*
X165375148Y-91694297D01*
X165998852Y-91376503D02*
X165845897Y-91847252D01*
X165845897Y-91847252D02*
X165528103Y-91223548D01*
X165528103Y-91223548D02*
X165998852Y-91376503D01*
X169976975Y-89625939D02*
X167310217Y-90048312D01*
X170211627Y-91107471D02*
X167544869Y-91529844D01*
X168589304Y-90453203D02*
X168628412Y-90700125D01*
X168628412Y-90700125D02*
X168753100Y-90528507D01*
X168914443Y-90907939D02*
X168804939Y-90216557D01*
X168514000Y-90617000D02*
X168168309Y-90671752D01*
X168859691Y-90562248D02*
X168568752Y-90962691D01*
X168568752Y-90962691D02*
X168459248Y-90271309D01*
X168459248Y-90271309D02*
X168859691Y-90562248D01*
X167298000Y-102699000D02*
X167503000Y-102699000D01*
X167298000Y-97199000D02*
X167598000Y-97199000D01*
X172808000Y-97199000D02*
X172508000Y-97199000D01*
X172808000Y-102699000D02*
X172508000Y-102699000D01*
X167298000Y-102699000D02*
X167298000Y-97199000D01*
X172808000Y-102699000D02*
X172808000Y-97199000D01*
X167503000Y-102699000D02*
X167503000Y-104449000D01*
X161213000Y-110195000D02*
X161113000Y-110195000D01*
X161963000Y-112395000D02*
G75*
G03X161963000Y-112395000I-800000J0D01*
G01*
X162713000Y-114595000D02*
X162713000Y-110195000D01*
X159613000Y-110195000D02*
X159613000Y-114595000D01*
X161213000Y-114595000D02*
X161113000Y-114595000D01*
M02*
