G04 #@! TF.FileFunction,Copper,L2,Bot,Signal*
%FSLAX46Y46*%
G04 Gerber Fmt 4.6, Leading zero omitted, Abs format (unit mm)*
G04 Created by KiCad (PCBNEW 4.0.5) date Sat Apr  1 12:10:48 2017*
%MOMM*%
%LPD*%
G01*
G04 APERTURE LIST*
%ADD10C,0.100000*%
%ADD11C,0.250000*%
%ADD12R,2.032000X1.524000*%
%ADD13C,2.286000*%
%ADD14C,0.600000*%
%ADD15C,0.254000*%
G04 APERTURE END LIST*
D10*
D11*
X176619963Y-89340571D02*
X176780678Y-90626286D01*
X176869964Y-90769143D01*
X177021749Y-90840571D01*
X177093177Y-90840571D01*
X176557463Y-88840571D02*
X176637821Y-88912000D01*
X176575321Y-88983429D01*
X176494964Y-88912000D01*
X176557463Y-88840571D01*
X176575321Y-88983429D01*
X175450321Y-90269143D02*
X175602106Y-90340571D01*
X175887820Y-90340571D01*
X176021749Y-90269143D01*
X176075321Y-90126286D01*
X176003892Y-89554857D01*
X175914606Y-89412000D01*
X175762820Y-89340571D01*
X175477106Y-89340571D01*
X175343178Y-89412000D01*
X175289606Y-89554857D01*
X175307463Y-89697714D01*
X176039606Y-89840571D01*
X174619963Y-89340571D02*
X174744963Y-90340571D01*
X174637821Y-89483429D02*
X174557464Y-89412000D01*
X174405677Y-89340571D01*
X174191392Y-89340571D01*
X174057464Y-89412000D01*
X174003892Y-89554857D01*
X174102106Y-90340571D01*
X173450321Y-90269143D02*
X173316392Y-90340571D01*
X173030677Y-90340571D01*
X172878892Y-90269143D01*
X172789607Y-90126286D01*
X172780678Y-90054857D01*
X172834249Y-89912000D01*
X172968177Y-89840571D01*
X173182463Y-89840571D01*
X173316392Y-89769143D01*
X173369964Y-89626286D01*
X173361035Y-89554857D01*
X173271749Y-89412000D01*
X173119963Y-89340571D01*
X172905677Y-89340571D01*
X172771749Y-89412000D01*
X171155678Y-89626286D02*
X171218177Y-89554857D01*
X171352106Y-89483429D01*
X171494964Y-89483429D01*
X171646749Y-89554857D01*
X171727106Y-89626286D01*
X171816392Y-89769143D01*
X171834249Y-89912000D01*
X171780677Y-90054857D01*
X171718178Y-90126286D01*
X171584249Y-90197714D01*
X171441391Y-90197714D01*
X171289606Y-90126286D01*
X171209249Y-90054857D01*
X171137821Y-89483429D02*
X171209249Y-90054857D01*
X171146749Y-90126286D01*
X171075321Y-90126286D01*
X170923534Y-90054857D01*
X170834249Y-89912000D01*
X170789606Y-89554857D01*
X170905677Y-89340571D01*
X171102106Y-89197714D01*
X171378892Y-89126286D01*
X171673534Y-89197714D01*
X171905677Y-89340571D01*
X172075320Y-89554857D01*
X172182463Y-89840571D01*
X172146749Y-90126286D01*
X172030677Y-90340571D01*
X171834249Y-90483429D01*
X171557463Y-90554857D01*
X171262821Y-90483429D01*
X171030677Y-90340571D01*
X169477106Y-89340571D02*
X169602106Y-90340571D01*
X169762821Y-88769143D02*
X170253892Y-89840571D01*
X169325320Y-89840571D01*
X168816392Y-90340571D02*
X168628892Y-88840571D01*
X168602107Y-89769143D02*
X168244964Y-90340571D01*
X168119964Y-89340571D02*
X168762821Y-89912000D01*
X167503893Y-88983429D02*
X167423535Y-88912000D01*
X167271749Y-88840571D01*
X166914606Y-88840571D01*
X166780678Y-88912000D01*
X166718178Y-88983429D01*
X166664607Y-89126286D01*
X166682464Y-89269143D01*
X166780678Y-89483429D01*
X167744963Y-90340571D01*
X166816392Y-90340571D01*
X166155678Y-90197714D02*
X166093179Y-90269143D01*
X166173535Y-90340571D01*
X166236036Y-90269143D01*
X166155678Y-90197714D01*
X166173535Y-90340571D01*
X164816392Y-90340571D02*
X164628892Y-88840571D01*
X164807464Y-90269143D02*
X164959249Y-90340571D01*
X165244963Y-90340571D01*
X165378893Y-90269143D01*
X165441392Y-90197714D01*
X165494964Y-90054857D01*
X165441393Y-89626286D01*
X165352107Y-89483429D01*
X165271750Y-89412000D01*
X165119963Y-89340571D01*
X164834249Y-89340571D01*
X164700321Y-89412000D01*
X163521750Y-90269143D02*
X163673535Y-90340571D01*
X163959249Y-90340571D01*
X164093178Y-90269143D01*
X164146750Y-90126286D01*
X164075321Y-89554857D01*
X163986035Y-89412000D01*
X163834249Y-89340571D01*
X163548535Y-89340571D01*
X163414607Y-89412000D01*
X163361035Y-89554857D01*
X163378892Y-89697714D01*
X164111035Y-89840571D01*
D12*
X179324000Y-111252000D03*
X179324000Y-114554000D03*
D13*
X164973000Y-111252000D03*
X175133000Y-111252000D03*
X170053000Y-114554000D03*
D14*
X170688000Y-101600000D03*
X170688000Y-93218000D03*
X165735000Y-103632000D03*
X160401000Y-112395000D03*
X169418000Y-91313000D03*
X169418000Y-99949000D03*
X169418000Y-108712000D03*
X169418000Y-102235000D03*
X171958000Y-91948000D03*
X173228000Y-106680000D03*
X173228000Y-96266000D03*
X168148000Y-94752416D03*
X168148000Y-107823000D03*
X171958000Y-105283000D03*
X171958000Y-98298000D03*
X174625000Y-103632000D03*
X163195000Y-114554000D03*
X166878000Y-111252000D03*
X166878000Y-96266000D03*
D11*
X170688000Y-101600000D02*
X170688000Y-100965000D01*
X170688000Y-101600000D02*
X170688000Y-100965000D01*
X170688000Y-100965000D02*
X170688000Y-93218000D01*
X165735000Y-103632000D02*
X160401000Y-108966000D01*
X160401000Y-112395000D02*
X160401000Y-108966000D01*
X169418000Y-99949000D02*
X169418000Y-91313000D01*
X169418000Y-102235000D02*
X169418000Y-99949000D01*
X169418000Y-102235000D02*
X169418000Y-108712000D01*
X173228000Y-96266000D02*
X173228000Y-93218000D01*
X173228000Y-93218000D02*
X171958000Y-91948000D01*
X173228000Y-96266000D02*
X173228000Y-106680000D01*
X168148000Y-107823000D02*
X168148000Y-94752416D01*
X171958000Y-98298000D02*
X171958000Y-105283000D01*
X170053000Y-114554000D02*
X170053000Y-112395000D01*
X174625000Y-107823000D02*
X174625000Y-103632000D01*
X170053000Y-112395000D02*
X174625000Y-107823000D01*
X179324000Y-114554000D02*
X170053000Y-114554000D01*
X163195000Y-114554000D02*
X170053000Y-114554000D01*
X166878000Y-96266000D02*
X166878000Y-111252000D01*
X179324000Y-111252000D02*
X175133000Y-111252000D01*
D15*
G36*
X181864000Y-87936606D02*
X181864000Y-99822000D01*
X173988000Y-99822000D01*
X173988000Y-96828463D01*
X174020192Y-96796327D01*
X174162838Y-96452799D01*
X174163162Y-96080833D01*
X174021117Y-95737057D01*
X173988000Y-95703882D01*
X173988000Y-93218000D01*
X173930148Y-92927161D01*
X173930148Y-92927160D01*
X173765401Y-92680599D01*
X172893122Y-91808320D01*
X172893162Y-91762833D01*
X172834971Y-91622000D01*
X177746036Y-91622000D01*
X177746036Y-87852000D01*
X162359965Y-87852000D01*
X162359965Y-91622000D01*
X168534005Y-91622000D01*
X168624883Y-91841943D01*
X168658000Y-91875118D01*
X168658000Y-93951783D01*
X168334799Y-93817578D01*
X167962833Y-93817254D01*
X167619057Y-93959299D01*
X167355808Y-94222089D01*
X167213162Y-94565617D01*
X167212838Y-94937583D01*
X167354883Y-95281359D01*
X167388000Y-95314534D01*
X167388000Y-99822000D01*
X158242000Y-99822000D01*
X158242000Y-87936606D01*
X158675606Y-87503000D01*
X181430394Y-87503000D01*
X181864000Y-87936606D01*
X181864000Y-87936606D01*
G37*
X181864000Y-87936606D02*
X181864000Y-99822000D01*
X173988000Y-99822000D01*
X173988000Y-96828463D01*
X174020192Y-96796327D01*
X174162838Y-96452799D01*
X174163162Y-96080833D01*
X174021117Y-95737057D01*
X173988000Y-95703882D01*
X173988000Y-93218000D01*
X173930148Y-92927161D01*
X173930148Y-92927160D01*
X173765401Y-92680599D01*
X172893122Y-91808320D01*
X172893162Y-91762833D01*
X172834971Y-91622000D01*
X177746036Y-91622000D01*
X177746036Y-87852000D01*
X162359965Y-87852000D01*
X162359965Y-91622000D01*
X168534005Y-91622000D01*
X168624883Y-91841943D01*
X168658000Y-91875118D01*
X168658000Y-93951783D01*
X168334799Y-93817578D01*
X167962833Y-93817254D01*
X167619057Y-93959299D01*
X167355808Y-94222089D01*
X167213162Y-94565617D01*
X167212838Y-94937583D01*
X167354883Y-95281359D01*
X167388000Y-95314534D01*
X167388000Y-99822000D01*
X158242000Y-99822000D01*
X158242000Y-87936606D01*
X158675606Y-87503000D01*
X181430394Y-87503000D01*
X181864000Y-87936606D01*
G36*
X166118000Y-102778632D02*
X165921799Y-102697162D01*
X165549833Y-102696838D01*
X165206057Y-102838883D01*
X164942808Y-103101673D01*
X164800162Y-103445201D01*
X164800121Y-103492077D01*
X159863599Y-108428599D01*
X159698852Y-108675161D01*
X159641000Y-108966000D01*
X159641000Y-111832537D01*
X159608808Y-111864673D01*
X159466162Y-112208201D01*
X159465838Y-112580167D01*
X159607883Y-112923943D01*
X159870673Y-113187192D01*
X160214201Y-113329838D01*
X160586167Y-113330162D01*
X160663915Y-113298037D01*
X168976642Y-113298037D01*
X170053000Y-114374395D01*
X171129358Y-113298037D01*
X171013194Y-113016342D01*
X170351667Y-112765938D01*
X169644671Y-112787751D01*
X169092806Y-113016342D01*
X168976642Y-113298037D01*
X160663915Y-113298037D01*
X160929943Y-113188117D01*
X161193192Y-112925327D01*
X161335838Y-112581799D01*
X161336162Y-112209833D01*
X161194117Y-111866057D01*
X161161000Y-111832882D01*
X161161000Y-109280802D01*
X165874680Y-104567122D01*
X165920167Y-104567162D01*
X166118000Y-104485419D01*
X166118000Y-109882332D01*
X165981471Y-109745564D01*
X165328218Y-109474309D01*
X164620886Y-109473692D01*
X163967160Y-109743806D01*
X163466564Y-110243529D01*
X163195309Y-110896782D01*
X163194692Y-111604114D01*
X163464806Y-112257840D01*
X163964529Y-112758436D01*
X164617782Y-113029691D01*
X165325114Y-113030308D01*
X165978840Y-112760194D01*
X166479436Y-112260471D01*
X166536658Y-112122666D01*
X166691201Y-112186838D01*
X167063167Y-112187162D01*
X167406943Y-112045117D01*
X167670192Y-111782327D01*
X167744192Y-111604114D01*
X173354692Y-111604114D01*
X173624806Y-112257840D01*
X174124529Y-112758436D01*
X174777782Y-113029691D01*
X175485114Y-113030308D01*
X176138840Y-112760194D01*
X176639436Y-112260471D01*
X176742610Y-112012000D01*
X177660560Y-112012000D01*
X177660560Y-112014000D01*
X177704838Y-112249317D01*
X177843910Y-112465441D01*
X178056110Y-112610431D01*
X178308000Y-112661440D01*
X180340000Y-112661440D01*
X180575317Y-112617162D01*
X180791441Y-112478090D01*
X180936431Y-112265890D01*
X180987440Y-112014000D01*
X180987440Y-110490000D01*
X180943162Y-110254683D01*
X180804090Y-110038559D01*
X180591890Y-109893569D01*
X180340000Y-109842560D01*
X178308000Y-109842560D01*
X178072683Y-109886838D01*
X177856559Y-110025910D01*
X177711569Y-110238110D01*
X177660560Y-110490000D01*
X177660560Y-110492000D01*
X176742773Y-110492000D01*
X176641194Y-110246160D01*
X176141471Y-109745564D01*
X175488218Y-109474309D01*
X174780886Y-109473692D01*
X174127160Y-109743806D01*
X173626564Y-110243529D01*
X173355309Y-110896782D01*
X173354692Y-111604114D01*
X167744192Y-111604114D01*
X167812838Y-111438799D01*
X167813162Y-111066833D01*
X167671117Y-110723057D01*
X167638000Y-110689882D01*
X167638000Y-108623633D01*
X167961201Y-108757838D01*
X168333167Y-108758162D01*
X168483013Y-108696247D01*
X168482838Y-108897167D01*
X168624883Y-109240943D01*
X168887673Y-109504192D01*
X169231201Y-109646838D01*
X169603167Y-109647162D01*
X169946943Y-109505117D01*
X170210192Y-109242327D01*
X170352838Y-108898799D01*
X170353162Y-108526833D01*
X170211117Y-108183057D01*
X170178000Y-108149882D01*
X170178000Y-102797463D01*
X170210192Y-102765327D01*
X170334622Y-102465668D01*
X170501201Y-102534838D01*
X170873167Y-102535162D01*
X171198000Y-102400944D01*
X171198000Y-104720537D01*
X171165808Y-104752673D01*
X171023162Y-105096201D01*
X171022838Y-105468167D01*
X171164883Y-105811943D01*
X171427673Y-106075192D01*
X171771201Y-106217838D01*
X172143167Y-106218162D01*
X172468000Y-106083944D01*
X172468000Y-106117537D01*
X172435808Y-106149673D01*
X172293162Y-106493201D01*
X172292838Y-106865167D01*
X172434883Y-107208943D01*
X172697673Y-107472192D01*
X173041201Y-107614838D01*
X173413167Y-107615162D01*
X173756943Y-107473117D01*
X174020192Y-107210327D01*
X174162838Y-106866799D01*
X174163162Y-106494833D01*
X174021117Y-106151057D01*
X173988000Y-106117882D01*
X173988000Y-100584000D01*
X181864000Y-100584000D01*
X181864000Y-115644394D01*
X181430394Y-116078000D01*
X171018826Y-116078000D01*
X171129358Y-115809963D01*
X170053000Y-114733605D01*
X168976642Y-115809963D01*
X169087174Y-116078000D01*
X158675606Y-116078000D01*
X158242000Y-115644394D01*
X158242000Y-114255333D01*
X168264938Y-114255333D01*
X168286751Y-114962329D01*
X168515342Y-115514194D01*
X168797037Y-115630358D01*
X169873395Y-114554000D01*
X170232605Y-114554000D01*
X171308963Y-115630358D01*
X171590658Y-115514194D01*
X171841062Y-114852667D01*
X171840664Y-114839750D01*
X177673000Y-114839750D01*
X177673000Y-115442309D01*
X177769673Y-115675698D01*
X177948301Y-115854327D01*
X178181690Y-115951000D01*
X179038250Y-115951000D01*
X179197000Y-115792250D01*
X179197000Y-114681000D01*
X179451000Y-114681000D01*
X179451000Y-115792250D01*
X179609750Y-115951000D01*
X180466310Y-115951000D01*
X180699699Y-115854327D01*
X180878327Y-115675698D01*
X180975000Y-115442309D01*
X180975000Y-114839750D01*
X180816250Y-114681000D01*
X179451000Y-114681000D01*
X179197000Y-114681000D01*
X177831750Y-114681000D01*
X177673000Y-114839750D01*
X171840664Y-114839750D01*
X171819249Y-114145671D01*
X171620434Y-113665691D01*
X177673000Y-113665691D01*
X177673000Y-114268250D01*
X177831750Y-114427000D01*
X179197000Y-114427000D01*
X179197000Y-113315750D01*
X179451000Y-113315750D01*
X179451000Y-114427000D01*
X180816250Y-114427000D01*
X180975000Y-114268250D01*
X180975000Y-113665691D01*
X180878327Y-113432302D01*
X180699699Y-113253673D01*
X180466310Y-113157000D01*
X179609750Y-113157000D01*
X179451000Y-113315750D01*
X179197000Y-113315750D01*
X179038250Y-113157000D01*
X178181690Y-113157000D01*
X177948301Y-113253673D01*
X177769673Y-113432302D01*
X177673000Y-113665691D01*
X171620434Y-113665691D01*
X171590658Y-113593806D01*
X171308963Y-113477642D01*
X170232605Y-114554000D01*
X169873395Y-114554000D01*
X168797037Y-113477642D01*
X168515342Y-113593806D01*
X168264938Y-114255333D01*
X158242000Y-114255333D01*
X158242000Y-100584000D01*
X166118000Y-100584000D01*
X166118000Y-102778632D01*
X166118000Y-102778632D01*
G37*
X166118000Y-102778632D02*
X165921799Y-102697162D01*
X165549833Y-102696838D01*
X165206057Y-102838883D01*
X164942808Y-103101673D01*
X164800162Y-103445201D01*
X164800121Y-103492077D01*
X159863599Y-108428599D01*
X159698852Y-108675161D01*
X159641000Y-108966000D01*
X159641000Y-111832537D01*
X159608808Y-111864673D01*
X159466162Y-112208201D01*
X159465838Y-112580167D01*
X159607883Y-112923943D01*
X159870673Y-113187192D01*
X160214201Y-113329838D01*
X160586167Y-113330162D01*
X160663915Y-113298037D01*
X168976642Y-113298037D01*
X170053000Y-114374395D01*
X171129358Y-113298037D01*
X171013194Y-113016342D01*
X170351667Y-112765938D01*
X169644671Y-112787751D01*
X169092806Y-113016342D01*
X168976642Y-113298037D01*
X160663915Y-113298037D01*
X160929943Y-113188117D01*
X161193192Y-112925327D01*
X161335838Y-112581799D01*
X161336162Y-112209833D01*
X161194117Y-111866057D01*
X161161000Y-111832882D01*
X161161000Y-109280802D01*
X165874680Y-104567122D01*
X165920167Y-104567162D01*
X166118000Y-104485419D01*
X166118000Y-109882332D01*
X165981471Y-109745564D01*
X165328218Y-109474309D01*
X164620886Y-109473692D01*
X163967160Y-109743806D01*
X163466564Y-110243529D01*
X163195309Y-110896782D01*
X163194692Y-111604114D01*
X163464806Y-112257840D01*
X163964529Y-112758436D01*
X164617782Y-113029691D01*
X165325114Y-113030308D01*
X165978840Y-112760194D01*
X166479436Y-112260471D01*
X166536658Y-112122666D01*
X166691201Y-112186838D01*
X167063167Y-112187162D01*
X167406943Y-112045117D01*
X167670192Y-111782327D01*
X167744192Y-111604114D01*
X173354692Y-111604114D01*
X173624806Y-112257840D01*
X174124529Y-112758436D01*
X174777782Y-113029691D01*
X175485114Y-113030308D01*
X176138840Y-112760194D01*
X176639436Y-112260471D01*
X176742610Y-112012000D01*
X177660560Y-112012000D01*
X177660560Y-112014000D01*
X177704838Y-112249317D01*
X177843910Y-112465441D01*
X178056110Y-112610431D01*
X178308000Y-112661440D01*
X180340000Y-112661440D01*
X180575317Y-112617162D01*
X180791441Y-112478090D01*
X180936431Y-112265890D01*
X180987440Y-112014000D01*
X180987440Y-110490000D01*
X180943162Y-110254683D01*
X180804090Y-110038559D01*
X180591890Y-109893569D01*
X180340000Y-109842560D01*
X178308000Y-109842560D01*
X178072683Y-109886838D01*
X177856559Y-110025910D01*
X177711569Y-110238110D01*
X177660560Y-110490000D01*
X177660560Y-110492000D01*
X176742773Y-110492000D01*
X176641194Y-110246160D01*
X176141471Y-109745564D01*
X175488218Y-109474309D01*
X174780886Y-109473692D01*
X174127160Y-109743806D01*
X173626564Y-110243529D01*
X173355309Y-110896782D01*
X173354692Y-111604114D01*
X167744192Y-111604114D01*
X167812838Y-111438799D01*
X167813162Y-111066833D01*
X167671117Y-110723057D01*
X167638000Y-110689882D01*
X167638000Y-108623633D01*
X167961201Y-108757838D01*
X168333167Y-108758162D01*
X168483013Y-108696247D01*
X168482838Y-108897167D01*
X168624883Y-109240943D01*
X168887673Y-109504192D01*
X169231201Y-109646838D01*
X169603167Y-109647162D01*
X169946943Y-109505117D01*
X170210192Y-109242327D01*
X170352838Y-108898799D01*
X170353162Y-108526833D01*
X170211117Y-108183057D01*
X170178000Y-108149882D01*
X170178000Y-102797463D01*
X170210192Y-102765327D01*
X170334622Y-102465668D01*
X170501201Y-102534838D01*
X170873167Y-102535162D01*
X171198000Y-102400944D01*
X171198000Y-104720537D01*
X171165808Y-104752673D01*
X171023162Y-105096201D01*
X171022838Y-105468167D01*
X171164883Y-105811943D01*
X171427673Y-106075192D01*
X171771201Y-106217838D01*
X172143167Y-106218162D01*
X172468000Y-106083944D01*
X172468000Y-106117537D01*
X172435808Y-106149673D01*
X172293162Y-106493201D01*
X172292838Y-106865167D01*
X172434883Y-107208943D01*
X172697673Y-107472192D01*
X173041201Y-107614838D01*
X173413167Y-107615162D01*
X173756943Y-107473117D01*
X174020192Y-107210327D01*
X174162838Y-106866799D01*
X174163162Y-106494833D01*
X174021117Y-106151057D01*
X173988000Y-106117882D01*
X173988000Y-100584000D01*
X181864000Y-100584000D01*
X181864000Y-115644394D01*
X181430394Y-116078000D01*
X171018826Y-116078000D01*
X171129358Y-115809963D01*
X170053000Y-114733605D01*
X168976642Y-115809963D01*
X169087174Y-116078000D01*
X158675606Y-116078000D01*
X158242000Y-115644394D01*
X158242000Y-114255333D01*
X168264938Y-114255333D01*
X168286751Y-114962329D01*
X168515342Y-115514194D01*
X168797037Y-115630358D01*
X169873395Y-114554000D01*
X170232605Y-114554000D01*
X171308963Y-115630358D01*
X171590658Y-115514194D01*
X171841062Y-114852667D01*
X171840664Y-114839750D01*
X177673000Y-114839750D01*
X177673000Y-115442309D01*
X177769673Y-115675698D01*
X177948301Y-115854327D01*
X178181690Y-115951000D01*
X179038250Y-115951000D01*
X179197000Y-115792250D01*
X179197000Y-114681000D01*
X179451000Y-114681000D01*
X179451000Y-115792250D01*
X179609750Y-115951000D01*
X180466310Y-115951000D01*
X180699699Y-115854327D01*
X180878327Y-115675698D01*
X180975000Y-115442309D01*
X180975000Y-114839750D01*
X180816250Y-114681000D01*
X179451000Y-114681000D01*
X179197000Y-114681000D01*
X177831750Y-114681000D01*
X177673000Y-114839750D01*
X171840664Y-114839750D01*
X171819249Y-114145671D01*
X171620434Y-113665691D01*
X177673000Y-113665691D01*
X177673000Y-114268250D01*
X177831750Y-114427000D01*
X179197000Y-114427000D01*
X179197000Y-113315750D01*
X179451000Y-113315750D01*
X179451000Y-114427000D01*
X180816250Y-114427000D01*
X180975000Y-114268250D01*
X180975000Y-113665691D01*
X180878327Y-113432302D01*
X180699699Y-113253673D01*
X180466310Y-113157000D01*
X179609750Y-113157000D01*
X179451000Y-113315750D01*
X179197000Y-113315750D01*
X179038250Y-113157000D01*
X178181690Y-113157000D01*
X177948301Y-113253673D01*
X177769673Y-113432302D01*
X177673000Y-113665691D01*
X171620434Y-113665691D01*
X171590658Y-113593806D01*
X171308963Y-113477642D01*
X170232605Y-114554000D01*
X169873395Y-114554000D01*
X168797037Y-113477642D01*
X168515342Y-113593806D01*
X168264938Y-114255333D01*
X158242000Y-114255333D01*
X158242000Y-100584000D01*
X166118000Y-100584000D01*
X166118000Y-102778632D01*
M02*
